<svg width="190" height="129" viewBox="0 0 190 129" fill="none" xmlns="http://www.w3.org/2000/svg">
<path d="M31.0607 116.68C31.8874 116.987 32.5274 117.433 32.9807 118.02C33.434 118.607 33.6607 119.313 33.6607 120.14C33.6607 121.367 33.154 122.32 32.1407 123C31.1274 123.667 29.6607 124 27.7407 124H19.8607V110H27.3407C29.2074 110 30.614 110.333 31.5607 111C32.5207 111.667 33.0007 112.553 33.0007 113.66C33.0007 114.313 32.834 114.9 32.5007 115.42C32.1807 115.94 31.7007 116.36 31.0607 116.68ZM24.5007 113.3V115.38H26.7007C27.7274 115.38 28.2407 115.033 28.2407 114.34C28.2407 113.647 27.7274 113.3 26.7007 113.3H24.5007ZM27.3407 120.7C28.3807 120.7 28.9007 120.333 28.9007 119.6C28.9007 118.867 28.3807 118.5 27.3407 118.5H24.5007V120.7H27.3407ZM42.6695 124.32C41.1628 124.32 39.8095 124.007 38.6095 123.38C37.4095 122.753 36.4695 121.887 35.7895 120.78C35.1095 119.66 34.7695 118.4 34.7695 117C34.7695 115.6 35.1095 114.347 35.7895 113.24C36.4695 112.12 37.4095 111.247 38.6095 110.62C39.8095 109.993 41.1628 109.68 42.6695 109.68C44.1761 109.68 45.5295 109.993 46.7295 110.62C47.9295 111.247 48.8695 112.12 49.5495 113.24C50.2295 114.347 50.5695 115.6 50.5695 117C50.5695 118.4 50.2295 119.66 49.5495 120.78C48.8695 121.887 47.9295 122.753 46.7295 123.38C45.5295 124.007 44.1761 124.32 42.6695 124.32ZM42.6695 120.5C43.2561 120.5 43.7828 120.36 44.2495 120.08C44.7295 119.787 45.1095 119.38 45.3895 118.86C45.6695 118.327 45.8095 117.707 45.8095 117C45.8095 116.293 45.6695 115.68 45.3895 115.16C45.1095 114.627 44.7295 114.22 44.2495 113.94C43.7828 113.647 43.2561 113.5 42.6695 113.5C42.0828 113.5 41.5495 113.647 41.0695 113.94C40.6028 114.22 40.2295 114.627 39.9495 115.16C39.6695 115.68 39.5295 116.293 39.5295 117C39.5295 117.707 39.6695 118.327 39.9495 118.86C40.2295 119.38 40.6028 119.787 41.0695 120.08C41.5495 120.36 42.0828 120.5 42.6695 120.5ZM59.6226 124.32C58.1159 124.32 56.7626 124.007 55.5626 123.38C54.3626 122.753 53.4226 121.887 52.7426 120.78C52.0626 119.66 51.7226 118.4 51.7226 117C51.7226 115.6 52.0626 114.347 52.7426 113.24C53.4226 112.12 54.3626 111.247 55.5626 110.62C56.7626 109.993 58.1159 109.68 59.6226 109.68C61.1292 109.68 62.4826 109.993 63.6826 110.62C64.8826 111.247 65.8226 112.12 66.5026 113.24C67.1826 114.347 67.5226 115.6 67.5226 117C67.5226 118.4 67.1826 119.66 66.5026 120.78C65.8226 121.887 64.8826 122.753 63.6826 123.38C62.4826 124.007 61.1292 124.32 59.6226 124.32ZM59.6226 120.5C60.2092 120.5 60.7359 120.36 61.2026 120.08C61.6826 119.787 62.0626 119.38 62.3426 118.86C62.6226 118.327 62.7626 117.707 62.7626 117C62.7626 116.293 62.6226 115.68 62.3426 115.16C62.0626 114.627 61.6826 114.22 61.2026 113.94C60.7359 113.647 60.2092 113.5 59.6226 113.5C59.0359 113.5 58.5026 113.647 58.0226 113.94C57.5559 114.22 57.1826 114.627 56.9026 115.16C56.6226 115.68 56.4826 116.293 56.4826 117C56.4826 117.707 56.6226 118.327 56.9026 118.86C57.1826 119.38 57.5559 119.787 58.0226 120.08C58.5026 120.36 59.0359 120.5 59.6226 120.5ZM72.0804 113.66H67.9804V110H80.9004V113.66H76.8004V124H72.0804V113.66ZM87.3463 124.32C86.1863 124.32 85.053 124.193 83.9463 123.94C82.853 123.673 81.953 123.32 81.2463 122.88L82.7663 119.44C83.433 119.827 84.1797 120.14 85.0063 120.38C85.833 120.607 86.6263 120.72 87.3863 120.72C88.0397 120.72 88.5063 120.66 88.7863 120.54C89.0663 120.407 89.2063 120.213 89.2063 119.96C89.2063 119.667 89.0197 119.447 88.6463 119.3C88.2863 119.153 87.6863 118.993 86.8463 118.82C85.7663 118.593 84.8663 118.353 84.1463 118.1C83.4263 117.833 82.7997 117.407 82.2663 116.82C81.733 116.22 81.4663 115.413 81.4663 114.4C81.4663 113.52 81.713 112.72 82.2063 112C82.6997 111.28 83.433 110.713 84.4063 110.3C85.393 109.887 86.5863 109.68 87.9863 109.68C88.9463 109.68 89.8863 109.787 90.8063 110C91.7397 110.2 92.5597 110.5 93.2663 110.9L91.8463 114.32C90.473 113.627 89.173 113.28 87.9463 113.28C86.733 113.28 86.1263 113.573 86.1263 114.16C86.1263 114.44 86.3063 114.653 86.6663 114.8C87.0263 114.933 87.6197 115.08 88.4463 115.24C89.513 115.44 90.413 115.673 91.1463 115.94C91.8797 116.193 92.513 116.613 93.0463 117.2C93.593 117.787 93.8663 118.587 93.8663 119.6C93.8663 120.48 93.6197 121.28 93.1263 122C92.633 122.707 91.893 123.273 90.9063 123.7C89.933 124.113 88.7463 124.32 87.3463 124.32ZM98.1155 113.66H94.0155V110H106.936V113.66H102.836V124H98.1155V113.66ZM114.161 120.48H112.881V124H108.161V110H114.901C116.195 110 117.321 110.213 118.281 110.64C119.241 111.067 119.981 111.68 120.501 112.48C121.021 113.28 121.281 114.213 121.281 115.28C121.281 116.28 121.055 117.153 120.601 117.9C120.148 118.647 119.495 119.24 118.641 119.68L121.581 124H116.541L114.161 120.48ZM116.521 115.28C116.521 114.76 116.361 114.36 116.041 114.08C115.721 113.787 115.241 113.64 114.601 113.64H112.881V116.92H114.601C115.241 116.92 115.721 116.78 116.041 116.5C116.361 116.207 116.521 115.8 116.521 115.28ZM132.604 121.56H127.284L126.344 124H121.544L127.664 110H132.304L138.424 124H133.544L132.604 121.56ZM131.304 118.16L129.944 114.64L128.584 118.16H131.304ZM145.917 110C147.21 110 148.337 110.213 149.297 110.64C150.257 111.067 150.997 111.68 151.517 112.48C152.037 113.28 152.297 114.213 152.297 115.28C152.297 116.347 152.037 117.28 151.517 118.08C150.997 118.88 150.257 119.493 149.297 119.92C148.337 120.347 147.21 120.56 145.917 120.56H143.897V124H139.177V110H145.917ZM145.617 116.92C146.257 116.92 146.737 116.78 147.057 116.5C147.377 116.207 147.537 115.8 147.537 115.28C147.537 114.76 147.377 114.36 147.057 114.08C146.737 113.787 146.257 113.64 145.617 113.64H143.897V116.92H145.617ZM165.196 114.94C167.156 114.94 168.596 115.353 169.516 116.18C170.45 116.993 170.916 118.067 170.916 119.4C170.916 120.28 170.683 121.093 170.216 121.84C169.763 122.573 169.056 123.173 168.096 123.64C167.136 124.093 165.943 124.32 164.516 124.32C163.53 124.32 162.543 124.213 161.556 124C160.583 123.787 159.73 123.473 158.996 123.06L160.596 119.58C161.183 119.913 161.796 120.167 162.436 120.34C163.09 120.513 163.723 120.6 164.336 120.6C164.883 120.6 165.323 120.507 165.656 120.32C166.003 120.12 166.176 119.847 166.176 119.5C166.176 119.167 166.023 118.92 165.716 118.76C165.41 118.587 164.856 118.5 164.056 118.5H159.996L160.696 110H169.996V113.56H164.576L164.476 114.94H165.196Z" fill="#7177F1"/>
<path d="M125 0H65C61.0248 0.00990093 57.2152 1.59343 54.4043 4.40434C51.5934 7.21524 50.0099 11.0248 50 15V75C50 83.25 56.75 90 65 90H125C133.25 90 140 83.25 140 75V15C140 6.75 133.25 0 125 0ZM116.799 63.2062C116.049 65.0137 114.86 66.6075 113.337 67.8338C111.762 69.1087 109.767 70.1588 107.311 70.9088C104.859 71.67 101.941 72.0525 98.5625 72.0525H74.4425V19.5525H99.95C104.667 19.5525 108.448 20.6137 111.275 22.7775C114.125 24.9525 115.543 28.1925 115.543 32.565C115.543 35.2088 114.897 37.4775 113.6 39.3525C112.31 41.2163 110.45 42.675 108.05 43.6875V43.86C111.252 44.535 113.731 46.0537 115.363 48.4163C116.994 50.7788 117.83 53.7638 117.83 57.3675C117.83 59.385 117.44 61.305 116.705 63.0975L116.799 63.1988V63.2062ZM106.389 50.2687C104.851 48.8625 102.691 48.1763 99.9012 48.1763H83.6937V64.5563H99.9463C102.721 64.5563 104.896 63.8363 106.434 62.3813C107.971 60.9375 108.759 58.8787 108.759 56.2313C108.732 53.6437 107.971 51.6413 106.434 50.2687H106.37H106.389ZM104.139 39.6825C105.624 38.4225 106.351 36.6187 106.351 34.2675C106.351 31.6275 105.695 29.7525 104.364 28.68C103.044 27.6112 101.139 27.0563 98.6338 27.0563H83.6338V41.5425H98.6338C100.82 41.5425 102.684 40.905 104.124 39.6825H104.139Z" fill="#790FF1"/>
</svg>
