<svg width="190" height="129" viewBox="0 0 190 129" fill="none" xmlns="http://www.w3.org/2000/svg">
<path d="M82.8917 124.32C81.4117 124.32 80.0784 124.013 78.8917 123.4C77.7051 122.773 76.7717 121.907 76.0917 120.8C75.4251 119.68 75.0917 118.413 75.0917 117C75.0917 115.587 75.4251 114.327 76.0917 113.22C76.7717 112.1 77.7051 111.233 78.8917 110.62C80.0784 109.993 81.4117 109.68 82.8917 109.68C84.2517 109.68 85.4651 109.92 86.5317 110.4C87.5984 110.88 88.4784 111.573 89.1717 112.48L86.1917 115.14C85.3251 114.047 84.3051 113.5 83.1317 113.5C82.1451 113.5 81.3517 113.82 80.7517 114.46C80.1517 115.087 79.8517 115.933 79.8517 117C79.8517 118.067 80.1517 118.92 80.7517 119.56C81.3517 120.187 82.1451 120.5 83.1317 120.5C84.3051 120.5 85.3251 119.953 86.1917 118.86L89.1717 121.52C88.4784 122.427 87.5984 123.12 86.5317 123.6C85.4651 124.08 84.2517 124.32 82.8917 124.32ZM95.5592 124.32C94.3992 124.32 93.2659 124.193 92.1592 123.94C91.0659 123.673 90.1659 123.32 89.4592 122.88L90.9792 119.44C91.6459 119.827 92.3926 120.14 93.2192 120.38C94.0459 120.607 94.8392 120.72 95.5992 120.72C96.2526 120.72 96.7192 120.66 96.9992 120.54C97.2792 120.407 97.4192 120.213 97.4192 119.96C97.4192 119.667 97.2326 119.447 96.8592 119.3C96.4992 119.153 95.8992 118.993 95.0592 118.82C93.9792 118.593 93.0792 118.353 92.3592 118.1C91.6392 117.833 91.0126 117.407 90.4792 116.82C89.9459 116.22 89.6792 115.413 89.6792 114.4C89.6792 113.52 89.9259 112.72 90.4192 112C90.9126 111.28 91.6459 110.713 92.6192 110.3C93.6059 109.887 94.7992 109.68 96.1992 109.68C97.1592 109.68 98.0992 109.787 99.0192 110C99.9526 110.2 100.773 110.5 101.479 110.9L100.059 114.32C98.6859 113.627 97.3859 113.28 96.1592 113.28C94.9459 113.28 94.3392 113.573 94.3392 114.16C94.3392 114.44 94.5192 114.653 94.8792 114.8C95.2392 114.933 95.8326 115.08 96.6592 115.24C97.7259 115.44 98.6259 115.673 99.3592 115.94C100.093 116.193 100.726 116.613 101.259 117.2C101.806 117.787 102.079 118.587 102.079 119.6C102.079 120.48 101.833 121.28 101.339 122C100.846 122.707 100.106 123.273 99.1192 123.7C98.1459 124.113 96.9592 124.32 95.5592 124.32ZM108.704 124.32C107.544 124.32 106.41 124.193 105.304 123.94C104.21 123.673 103.31 123.32 102.604 122.88L104.124 119.44C104.79 119.827 105.537 120.14 106.364 120.38C107.19 120.607 107.984 120.72 108.744 120.72C109.397 120.72 109.864 120.66 110.144 120.54C110.424 120.407 110.564 120.213 110.564 119.96C110.564 119.667 110.377 119.447 110.004 119.3C109.644 119.153 109.044 118.993 108.204 118.82C107.124 118.593 106.224 118.353 105.504 118.1C104.784 117.833 104.157 117.407 103.624 116.82C103.09 116.22 102.824 115.413 102.824 114.4C102.824 113.52 103.07 112.72 103.564 112C104.057 111.28 104.79 110.713 105.764 110.3C106.75 109.887 107.944 109.68 109.344 109.68C110.304 109.68 111.244 109.787 112.164 110C113.097 110.2 113.917 110.5 114.624 110.9L113.204 114.32C111.83 113.627 110.53 113.28 109.304 113.28C108.09 113.28 107.484 113.573 107.484 114.16C107.484 114.44 107.664 114.653 108.024 114.8C108.384 114.933 108.977 115.08 109.804 115.24C110.87 115.44 111.77 115.673 112.504 115.94C113.237 116.193 113.87 116.613 114.404 117.2C114.95 117.787 115.224 118.587 115.224 119.6C115.224 120.48 114.977 121.28 114.484 122C113.99 122.707 113.25 123.273 112.264 123.7C111.29 124.113 110.104 124.32 108.704 124.32Z" fill="#7177F1"/>
<path d="M62.0051 81.0032L55 0H132L124.986 80.9904L93.4532 90L62.0051 81.0032Z" fill="#1572B6"/>
<path d="M93.5 83.115L118.982 75.8346L124.976 6.62468H93.5V83.115Z" fill="#33A9DC"/>
<path d="M93.5 35.9711H106.256L107.136 25.7979H93.5V15.8625H117.672L117.441 18.5272L115.074 45.9065H93.5V35.9711Z" fill="white"/>
<path d="M93.5592 61.7722L93.5155 61.7851L82.7802 58.7958L82.094 50.8725H72.416L73.7665 66.4715L93.5124 72.1222L93.5592 72.1094V61.7722Z" fill="#EBEBEB"/>
<path d="M105.437 45.4854L104.276 58.7893L93.5254 61.7786V72.1157L113.287 66.4714L113.433 64.7936L115.108 45.4854H105.437Z" fill="white"/>
<path d="M93.5346 15.8625V25.7979H70.2487L70.0553 23.564L69.6156 18.5272L69.3848 15.8625H93.5346Z" fill="#EBEBEB"/>
<path d="M93.5001 35.971V45.9064H82.8989L82.7055 43.6725L82.2689 38.6357L82.0381 35.971H93.5001Z" fill="#EBEBEB"/>
</svg>
