<svg width="190" height="129" viewBox="0 0 190 129" fill="none" xmlns="http://www.w3.org/2000/svg">
<path d="M79.647 110V124H74.927V118.84H70.567V124H65.847V110H70.567V114.96H74.927V110H79.647ZM84.9613 113.66H80.8613V110H93.7813V113.66H89.6813V124H84.9613V113.66ZM107.507 124L107.467 117.62L104.427 122.74H102.347L99.3072 117.84V124H95.0072V110H98.8872L103.447 117.46L107.887 110H111.767L111.807 124H107.507ZM114.089 110H118.809V120.34H125.129V124H114.089V110Z" fill="#7177F1"/>
<path d="M63.4295 81.0032L56.4219 0H133.422L126.405 80.9904L94.8751 90L63.4295 81.0032Z" fill="#E44F26"/>
<path d="M94.9219 83.1151L120.401 75.8347L126.396 6.62474H94.9219V83.1151Z" fill="#F1662A"/>
<path d="M94.9217 36.665H82.1663L81.2868 26.4918H94.9217V16.5565H70.752L70.9827 19.2243L73.3498 46.6004H94.9217V36.665Z" fill="#EBEBEB"/>
<path d="M94.9217 62.4663L94.8781 62.4791L84.1436 59.4931L83.4575 51.5699H73.7803L75.1307 67.1656L94.8781 72.8163L94.9217 72.8034V62.4663Z" fill="#EBEBEB"/>
<path d="M94.8877 36.6653V46.6007H106.757L105.641 59.4867L94.8877 62.476V72.8132L114.651 67.1657L114.794 65.4878L117.058 39.3332L117.295 36.6653H94.8877Z" fill="white"/>
<path d="M94.8877 16.5565V26.4918H118.172L118.365 24.2611L118.805 19.2243L119.036 16.5565H94.8877Z" fill="white"/>
</svg>
